<svg width="249" height="41" viewBox="0 0 249 41" fill="none" xmlns="http://www.w3.org/2000/svg">
<rect x="140.373" y="0.505103" width="108" height="39" rx="14.5" stroke="black" stroke-dasharray="2 2"/>
<path d="M171.089 26.0036L171.088 15.1236L175.088 15.1234C177.392 15.1233 178.848 16.2592 178.849 18.0832C178.849 19.0912 178.337 19.8753 177.393 20.2753C178.737 20.6752 179.457 21.6192 179.457 22.8992C179.457 24.8672 178.033 26.0033 175.633 26.0034L171.089 26.0036ZM175.04 16.5474L172.88 16.5475L172.881 19.7475L175.009 19.7474C176.289 19.7474 177.009 19.1073 177.009 18.1793C177.009 17.1713 176.272 16.5474 175.04 16.5474ZM175.409 21.1394L172.881 21.1395L172.881 24.5795L175.585 24.5794C176.849 24.5793 177.617 23.8913 177.617 22.8513C177.617 21.8113 176.801 21.1393 175.409 21.1394ZM186.493 22.4669L186.493 17.4749L188.189 17.4748L188.189 26.0028L186.493 26.0029L186.493 24.8509C185.933 25.7629 185.037 26.2109 183.949 26.211C182.205 26.2111 181.117 25.1871 181.117 23.1711L181.117 17.4751L182.829 17.475L182.829 22.819C182.829 24.051 183.341 24.787 184.477 24.787C185.725 24.7869 186.493 23.6509 186.493 22.4669ZM190.497 23.4587L190.497 18.8027L189.345 18.8027L189.345 17.4747L190.497 17.4747L190.497 15.5067L192.209 15.5066L192.209 17.4746L194.049 17.4745L194.049 18.8025L192.209 18.8026L192.209 23.3626C192.209 24.3386 192.481 24.8026 193.681 24.8025L194.017 24.8025L194.017 26.0505C193.825 26.1465 193.425 26.2105 192.945 26.2106C191.281 26.2106 190.497 25.2987 190.497 23.4587ZM195.56 23.4584L195.56 18.8024L194.408 18.8025L194.408 17.4745L195.56 17.4744L195.559 15.5064L197.271 15.5064L197.272 17.4744L199.112 17.4743L199.112 18.8023L197.272 18.8024L197.272 23.3624C197.272 24.3384 197.544 24.8023 198.744 24.8023L199.08 24.8023L199.08 26.0503C198.888 26.1463 198.488 26.2103 198.008 26.2103C196.344 26.2104 195.56 25.2984 195.56 23.4584ZM203.966 26.21C201.486 26.2102 199.982 24.5302 199.982 21.7462C199.982 18.8502 201.534 17.2502 203.966 17.25C206.446 17.2499 207.95 18.9619 207.95 21.7459C207.95 24.6259 206.398 26.2099 203.966 26.21ZM203.966 24.77C205.422 24.77 206.206 23.7139 206.206 21.7459C206.206 19.7939 205.406 18.69 203.966 18.69C202.526 18.6901 201.726 19.7621 201.726 21.7461C201.726 23.6821 202.526 24.7701 203.966 24.77ZM209.617 26.0018L209.617 17.4738L211.329 17.4737L211.329 18.6097C211.905 17.6977 212.801 17.2496 213.905 17.2496C215.681 17.2495 216.785 18.2894 216.785 20.3054L216.785 26.0014L215.089 26.0015L215.089 20.6575C215.089 19.4255 214.545 18.6735 213.377 18.6736C212.097 18.6737 211.329 19.8097 211.329 20.9937L211.329 26.0017L209.617 26.0018Z" fill="#2F2F2F"/>
<rect x="1.27762e-07" y="0.956177" width="109" height="40" rx="15" fill="#2F2F2F"/>
<path d="M31.2161 26.9547L31.2156 16.0747L35.2156 16.0745C37.5196 16.0744 38.9757 17.2103 38.9757 19.0343C38.9758 20.0423 38.4638 20.8263 37.5199 21.2264C38.8639 21.6263 39.5839 22.5703 39.584 23.8503C39.5841 25.8183 38.1601 26.9543 35.7601 26.9544L31.2161 26.9547ZM35.1677 17.4985L33.0077 17.4986L33.0078 20.6986L35.1358 20.6985C36.4158 20.6984 37.1358 20.0584 37.1358 19.1304C37.1357 18.1224 36.3997 17.4984 35.1677 17.4985ZM35.5359 22.0904L33.0079 22.0906L33.0081 25.5306L35.7121 25.5304C36.9761 25.5304 37.744 24.8423 37.744 23.8023C37.7439 22.7623 36.9279 22.0904 35.5359 22.0904ZM46.6202 23.4179L46.62 18.4259L48.316 18.4258L48.3164 26.9538L46.6204 26.9539L46.6203 25.8019C46.0604 26.7139 45.1644 27.162 44.0764 27.162C42.3324 27.1621 41.2443 26.1382 41.2442 24.1222L41.244 18.4262L42.956 18.4261L42.9562 23.7701C42.9563 25.0021 43.4683 25.7381 44.6043 25.738C45.8523 25.738 46.6203 24.6019 46.6202 23.4179ZM50.6245 24.4097L50.6243 19.7537L49.4723 19.7538L49.4722 18.4258L50.6242 18.4257L50.6241 16.4577L52.3361 16.4577L52.3362 18.4256L54.1762 18.4256L54.1763 19.7536L52.3363 19.7537L52.3365 24.3137C52.3365 25.2897 52.6086 25.7536 53.8086 25.7536L54.1446 25.7536L54.1446 27.0016C53.9526 27.0976 53.5526 27.1616 53.0726 27.1616C51.4086 27.1617 50.6246 26.2497 50.6245 24.4097ZM55.687 24.4095L55.6868 19.7535L54.5348 19.7535L54.5347 18.4255L55.6867 18.4255L55.6866 16.4575L57.3986 16.4574L57.3987 18.4254L59.2387 18.4253L59.2388 19.7533L57.3988 19.7534L57.399 24.3134C57.399 25.2894 57.6711 25.7534 58.8711 25.7533L59.2071 25.7533L59.2071 27.0013C59.0151 27.0973 58.6151 27.1614 58.1351 27.1614C56.4711 27.1615 55.6871 26.2495 55.687 24.4095ZM64.0936 27.1611C61.6136 27.1612 60.1096 25.4813 60.1094 22.6973C60.1093 19.8013 61.6612 18.2012 64.0932 18.2011C66.5732 18.201 68.0773 19.9129 68.0774 22.6969C68.0776 25.5769 66.5256 27.161 64.0936 27.1611ZM64.0936 25.7211C65.5496 25.721 66.3335 24.665 66.3334 22.697C66.3333 20.745 65.5333 19.641 64.0933 19.6411C62.6533 19.6412 61.8533 20.7132 61.8534 22.6972C61.8535 24.6332 62.6536 25.7212 64.0936 25.7211ZM69.7444 26.9528L69.744 18.4248L71.456 18.4247L71.456 19.5607C72.032 18.6487 72.928 18.2007 74.032 18.2006C75.808 18.2005 76.912 19.2405 76.9121 21.2565L76.9124 26.9525L75.2164 26.9526L75.2161 21.6086C75.2161 20.3766 74.672 19.6246 73.504 19.6246C72.224 19.6247 71.4561 20.7607 71.4561 21.9447L71.4564 26.9527L69.7444 26.9528Z" fill="white"/>
</svg>
