<svg width="250" height="100" viewBox="0 0 250 100" fill="none" xmlns="http://www.w3.org/2000/svg">
<rect x="0.5" y="0.5" width="249" height="99" stroke="black" stroke-dasharray="2 2"/>
<path d="M125 37.8125C122.59 37.8125 120.233 38.5273 118.229 39.8665C116.225 41.2056 114.663 43.1091 113.74 45.336C112.818 47.563 112.576 50.0135 113.047 52.3777C113.517 54.7418 114.678 56.9134 116.382 58.6179C118.087 60.3223 120.258 61.4831 122.622 61.9533C124.986 62.4236 127.437 62.1822 129.664 61.2598C131.891 60.3373 133.794 58.7752 135.134 56.771C136.473 54.7668 137.188 52.4105 137.188 50C137.183 46.7689 135.898 43.6713 133.613 41.3866C131.329 39.1019 128.231 37.8165 125 37.8125ZM129.688 50.9375L125.938 50.9375L125.938 54.6875C125.938 54.9361 125.839 55.1746 125.663 55.3504C125.487 55.5262 125.249 55.625 125 55.625C124.751 55.625 124.513 55.5262 124.337 55.3504C124.161 55.1746 124.063 54.9361 124.063 54.6875L124.063 50.9375L120.313 50.9375C120.064 50.9375 119.825 50.8387 119.65 50.6629C119.474 50.4871 119.375 50.2486 119.375 50C119.375 49.7514 119.474 49.5129 119.65 49.3371C119.825 49.1613 120.064 49.0625 120.313 49.0625L124.063 49.0625L124.063 45.3125C124.063 45.0639 124.161 44.8254 124.337 44.6496C124.513 44.4738 124.751 44.375 125 44.375C125.249 44.375 125.487 44.4738 125.663 44.6496C125.839 44.8254 125.938 45.0639 125.938 45.3125L125.938 49.0625L129.688 49.0625C129.936 49.0625 130.175 49.1613 130.35 49.3371C130.526 49.5129 130.625 49.7514 130.625 50C130.625 50.2486 130.526 50.4871 130.35 50.6629C130.175 50.8387 129.936 50.9375 129.688 50.9375Z" fill="black"/>
</svg>
