<svg width="720" height="800" viewBox="0 0 720 800" fill="none" xmlns="http://www.w3.org/2000/svg">
<g clip-path="url(#clip0_154_433)">
<path d="M50 6H667.699C692.776 6 712.782 26.9262 711.655 51.9775L680.155 751.978C679.097 775.485 659.731 794 636.199 794H50C25.6995 794 6 774.301 6 750V50C6 25.6995 25.6995 6 50 6Z" fill="url(#paint0_linear_154_433)" stroke="white" stroke-width="12"/>
<path d="M273.21 579C272.611 579 266.163 580.497 255.214 583.59C246.814 585.962 243.117 589.278 242.958 590.711C242.869 591.521 244.896 591.996 248.737 592.304C252.578 592.613 258.717 592.613 292.577 590.367C326.436 588.12 387.829 583.628 421.178 581.464C454.527 579.299 457.971 579.599 458.023 580.053C458.075 580.506 454.631 581.105 437.658 583.061C420.685 585.017 390.288 588.311 401.807 589.709C413.326 591.106 467.681 590.507 462.59 594.391C457.499 598.276 391.314 606.661 357.443 610.906C323.573 615.151 324.022 615.001 357.945 614.025C391.867 613.05 459.25 611.253 528.675 609.402" stroke="#FF6A00" stroke-width="2" stroke-linecap="round"/>
<rect x="110.924" y="342.04" width="350" height="80" transform="rotate(3.95 110.924 342.04)" fill="#FF6A00"/>
<g filter="url(#filter0_d_154_433)">
<path d="M150.546 410.933L148.678 403.437L132.826 402.342L129.945 409.511L115.56 408.517L135.389 362.173L152.498 363.354L165.77 411.984L150.546 410.933ZM140.704 382.748L137.055 391.898L145.994 392.516L143.638 382.951L142.576 376.983L140.704 382.748ZM169.244 412.224L172.523 364.737L190.959 366.01L197.002 390.284L198.764 399.317L201.75 390.612L211.071 367.399L229.089 368.643L225.81 416.13L211.564 415.146L214.646 383.714L210.053 396.378L202.695 414.534L192.359 413.82L187.446 394.536L184.748 381.79L183.49 413.208L169.244 412.224ZM264.299 418.788L262.431 411.291L246.579 410.197L243.698 417.365L229.312 416.372L249.142 370.028L266.251 371.209L279.523 419.839L264.299 418.788ZM254.457 390.603L250.808 399.753L259.747 400.37L257.39 390.805L256.329 384.838L254.457 390.603ZM282.299 420.03L283.094 408.508L306.849 385.59L284.782 384.066L285.578 372.544L323.846 375.186L323.051 386.709L299.296 409.627L321.363 411.15L320.567 422.673L282.299 420.03ZM326.848 423.107L330.127 375.62L344.373 376.603L341.094 424.09L326.848 423.107ZM348.057 424.571L351.336 377.084L366.42 378.126L375.689 398.342L379.178 407.775L380.317 379.085L394.563 380.069L391.284 427.556L376.2 426.514L366.87 406.153L363.442 396.865L362.303 425.555L348.057 424.571ZM442.734 431.109L433.376 430.462L432.553 426.125C429.429 429.699 424.835 431.206 419.457 430.834C405.91 429.899 397.417 419.77 398.488 404.267C399.558 388.764 409.372 379.758 424.177 380.781C435.071 381.533 443.814 388.031 444.894 399.823L430.02 398.796C429.247 394.743 426.943 392.549 423.032 392.279C417.236 391.879 413.671 396.755 413.083 405.275C412.495 413.794 415.644 418.994 421.65 419.408C425.56 419.678 429.033 418.164 430.295 414.111L423.242 413.624L423.965 403.149L444.566 404.572L442.734 431.109Z" fill="white"/>
</g>
<g filter="url(#filter1_d_154_433)">
<path d="M110.456 564V516.4H124.736V564H110.456ZM131.715 564V516.4H151.735C166.995 516.4 176.445 525.5 176.445 540.27C176.445 555.04 166.995 564 151.735 564H131.715ZM151.735 552.45C158.175 552.45 161.815 548.04 161.815 540.27C161.815 532.5 158.175 527.95 151.735 527.95H145.995V552.45H151.735ZM182.028 564V516.4H217.378V527.6H196.308V534.39H214.578V545.24H196.308V552.8H217.378V564H182.028ZM254.887 564L252.507 556.65H236.617L234.237 564H219.817L236.407 516.4H253.557L270.147 564H254.887ZM243.127 536.56L240.117 545.94H249.077L246.067 536.56L244.597 530.68L243.127 536.56ZM285.966 529C285.966 537.12 313.266 529.7 313.266 549.09C313.266 559.31 304.656 565.33 292.896 565.33C280.996 565.33 272.246 559.8 270.846 548.18H285.896C286.386 552.24 289.116 554.48 293.036 554.48C296.746 554.48 298.636 553.15 298.636 550.84C298.636 542.65 271.336 549.02 271.336 530.54C271.336 521.79 278.476 515.07 291.006 515.07C301.296 515.07 310.606 519.97 311.866 531.52H296.606C295.976 527.81 294.016 525.92 290.376 525.92C287.786 525.92 285.966 527.11 285.966 529ZM317.5 564V550.42H331.08V564H317.5Z" fill="url(#paint1_linear_154_433)"/>
</g>
<g filter="url(#filter2_d_154_433)">
<path d="M110.456 492V444.4H145.806V455.6H124.736V464.28H143.006V475.48H124.736V492H110.456ZM151.403 492V444.4H172.333C184.163 444.4 191.303 450.21 191.303 459.45C191.303 464.56 189.343 468.2 185.843 470.51C187.663 472.05 188.853 474.29 189.553 477.23L193.053 492H178.283L175.833 479.82C175.203 476.6 174.363 475.83 171.353 475.83H165.683V492H151.403ZM172.053 455.6H165.683V464.98H171.703C175.343 464.98 176.673 463.02 176.673 460.29C176.673 457.49 175.273 455.6 172.053 455.6ZM221.266 493.33C206.006 493.33 196.556 483.74 196.556 468.27C196.556 452.73 206.006 443.07 221.266 443.07C236.526 443.07 245.976 452.73 245.976 468.27C245.976 483.74 236.526 493.33 221.266 493.33ZM221.266 481.78C227.706 481.78 231.346 476.74 231.346 468.27C231.346 459.73 227.706 454.62 221.266 454.62C214.826 454.62 211.186 459.73 211.186 468.27C211.186 476.74 214.826 481.78 221.266 481.78ZM251.549 492V444.4H270.029L277.729 468.2L280.109 477.09L282.489 468.2L290.189 444.4H308.249V492H293.969L294.879 460.43L291.169 473.38L285.079 492H274.719L268.489 473.1L264.919 460.57L265.829 492H251.549ZM338.861 492V476.18L322.971 444.4H338.931L344.531 458.05L346.421 463.93L348.311 458.05L353.911 444.4H369.031L353.141 476.18V492H338.861ZM392.711 493.33C377.451 493.33 368.001 483.74 368.001 468.27C368.001 452.73 377.451 443.07 392.711 443.07C407.971 443.07 417.421 452.73 417.421 468.27C417.421 483.74 407.971 493.33 392.711 493.33ZM392.711 481.78C399.151 481.78 402.791 476.74 402.791 468.27C402.791 459.73 399.151 454.62 392.711 454.62C386.271 454.62 382.631 459.73 382.631 468.27C382.631 476.74 386.271 481.78 392.711 481.78ZM465.065 473.87C465.065 485.91 456.945 493.33 443.855 493.33C430.695 493.33 422.645 485.91 422.645 473.87V444.4H436.925V473.87C436.925 478.84 439.445 481.78 443.855 481.78C448.335 481.78 450.785 478.84 450.785 473.87V444.4H465.065V473.87ZM471.735 492V444.4H492.665C504.495 444.4 511.635 450.21 511.635 459.45C511.635 464.56 509.675 468.2 506.175 470.51C507.995 472.05 509.185 474.29 509.885 477.23L513.385 492H498.615L496.165 479.82C495.535 476.6 494.695 475.83 491.685 475.83H486.015V492H471.735ZM492.385 455.6H486.015V464.98H492.035C495.675 464.98 497.005 463.02 497.005 460.29C497.005 457.49 495.605 455.6 492.385 455.6Z" fill="white"/>
</g>
<g filter="url(#filter3_d_154_433)">
<path d="M123.476 313C123.476 321.12 150.776 313.7 150.776 333.09C150.776 343.31 142.166 349.33 130.406 349.33C118.506 349.33 109.756 343.8 108.356 332.18H123.406C123.896 336.24 126.626 338.48 130.546 338.48C134.256 338.48 136.146 337.15 136.146 334.84C136.146 326.65 108.846 333.02 108.846 314.54C108.846 305.79 115.986 299.07 128.516 299.07C138.806 299.07 148.116 303.97 149.376 315.52H134.116C133.486 311.81 131.526 309.92 127.886 309.92C125.296 309.92 123.476 311.11 123.476 313ZM179.019 349.33C163.759 349.33 154.309 339.74 154.309 324.27C154.309 308.73 163.759 299.07 179.019 299.07C194.279 299.07 203.729 308.73 203.729 324.27C203.729 339.74 194.279 349.33 179.019 349.33ZM179.019 337.78C185.459 337.78 189.099 332.74 189.099 324.27C189.099 315.73 185.459 310.62 179.019 310.62C172.579 310.62 168.939 315.73 168.939 324.27C168.939 332.74 172.579 337.78 179.019 337.78ZM209.303 348V300.4H227.783L235.483 324.2L237.863 333.09L240.243 324.2L247.943 300.4H266.003V348H251.723L252.633 316.43L248.923 329.38L242.833 348H232.473L226.243 329.1L222.673 316.57L223.583 348H209.303ZM273.014 348V300.4H308.364V311.6H287.294V318.39H305.564V329.24H287.294V336.8H308.364V348H273.014ZM325.993 348V311.95H312.203V300.4H354.063V311.95H340.273V348H325.993ZM358.942 348V300.4H373.222V317.97H387.992V300.4H402.272V348H387.992V329.52H373.222V348H358.942ZM409.254 348V300.4H423.534V348H409.254ZM430.514 348V300.4H445.634L456.274 319.93L460.404 329.1L459.564 300.4H473.844V348H458.724L448.014 328.33L443.954 319.3L444.794 348H430.514ZM525.417 348H516.037L514.917 343.73C512.047 347.51 507.567 349.33 502.177 349.33C488.597 349.33 479.427 339.81 479.427 324.27C479.427 308.73 488.597 299.07 503.437 299.07C514.357 299.07 523.527 304.95 525.417 316.64H510.507C509.457 312.65 507.007 310.62 503.087 310.62C497.277 310.62 494.057 315.73 494.057 324.27C494.057 332.81 497.557 337.78 503.577 337.78C507.497 337.78 510.857 336.03 511.837 331.9H504.767V321.4H525.417V348Z" fill="white"/>
</g>
<g filter="url(#filter4_d_154_433)">
<path d="M110.456 276V228.4H131.386C142.796 228.4 149.656 233.86 149.656 242.47C149.656 246.11 147.976 248.91 145.316 250.73C149.866 252.69 152.456 256.26 152.456 261.44C152.456 270.75 145.876 276 133.766 276H110.456ZM131.106 239.6H124.736V246.88H130.756C133.906 246.88 135.026 245.34 135.026 243.31C135.026 241.07 133.836 239.6 131.106 239.6ZM133.486 256.89H124.736V264.8H133.416C136.426 264.8 137.826 263.19 137.826 260.81C137.826 258.64 136.566 256.89 133.486 256.89ZM199.42 257.87C199.42 269.91 191.3 277.33 178.21 277.33C165.05 277.33 157 269.91 157 257.87V228.4H171.28V257.87C171.28 262.84 173.8 265.78 178.21 265.78C182.69 265.78 185.14 262.84 185.14 257.87V228.4H199.42V257.87ZM206.09 276V228.4H220.37V276H206.09ZM227.35 276V228.4H241.63V264.45H260.6V276H227.35ZM265.495 276V228.4H285.515C300.775 228.4 310.225 237.5 310.225 252.27C310.225 267.04 300.775 276 285.515 276H265.495ZM285.515 264.45C291.955 264.45 295.595 260.04 295.595 252.27C295.595 244.5 291.955 239.95 285.515 239.95H279.775V264.45H285.515Z" fill="url(#paint2_linear_154_433)"/>
</g>
<path d="M113.181 199.63C113.071 198.98 112.781 198.28 112.311 197.53C111.841 196.77 111.171 196.065 110.301 195.415C109.441 194.765 108.581 194.35 107.721 194.17V193.54C108.571 193.34 109.386 192.97 110.166 192.43C110.956 191.88 111.616 191.22 112.146 190.45C112.686 189.66 113.031 188.88 113.181 188.11H113.811C113.901 188.61 114.081 189.125 114.351 189.655C114.621 190.175 114.966 190.675 115.386 191.155C115.816 191.625 116.296 192.05 116.826 192.43C117.616 192.99 118.421 193.36 119.241 193.54V194.17C118.691 194.28 118.121 194.505 117.531 194.845C116.951 195.185 116.411 195.59 115.911 196.06C115.411 196.52 115.001 197.005 114.681 197.515C114.211 198.265 113.921 198.97 113.811 199.63H113.181ZM134.527 192.07H132.007C131.722 191.065 131.002 190.525 129.982 190.525C128.437 190.525 127.552 191.815 127.552 193.915C127.552 196.03 128.422 197.275 129.982 197.275C130.942 197.275 131.692 196.765 131.977 195.805H134.527C134.002 198.055 132.187 199.24 130.012 199.24C126.967 199.24 125.092 197.215 125.092 193.915C125.092 190.615 126.967 188.56 130.042 188.56C132.232 188.56 134.092 189.745 134.527 192.07ZM140.381 199V188.8H144.551C146.936 188.8 148.406 190 148.406 191.89C148.406 193.015 147.941 193.795 147.131 194.275C147.596 194.62 147.881 195.13 148.061 195.88L148.826 199H146.321L145.751 196.33C145.556 195.415 145.241 195.22 144.371 195.22H142.781V199H140.381ZM144.506 190.705H142.781V193.36H144.446C145.451 193.36 145.931 192.82 145.931 192.025C145.931 191.23 145.436 190.705 144.506 190.705ZM154.608 199V188.8H161.928V190.705H157.008V192.85H161.343V194.71H157.008V197.095H161.928V199H154.608ZM174.887 199L174.212 197.095H170.207L169.532 199H167.117L170.837 188.8H173.717L177.452 199H174.887ZM171.902 192.31L170.867 195.25H173.552L172.517 192.31L172.217 191.155L171.902 192.31ZM184.411 199V190.765H181.246V188.8H189.991V190.765H186.826V199H184.411ZM195.764 199V188.8H203.084V190.705H198.164V192.85H202.499V194.71H198.164V197.095H203.084V199H195.764ZM216.395 199V188.8H219.56L221.78 194.83L222.215 196.345L222.65 194.83L224.87 188.8H227.945V199H225.545L225.68 191.485L224.9 194.02L223.04 199H221.3L219.425 193.99L218.66 191.5L218.795 199H216.395ZM239.054 199.24C235.889 199.24 233.939 197.2 233.939 193.915C233.939 190.615 235.889 188.56 239.054 188.56C242.204 188.56 244.154 190.615 244.154 193.915C244.154 197.2 242.204 199.24 239.054 199.24ZM239.054 197.275C240.719 197.275 241.694 196.015 241.694 193.915C241.694 191.815 240.719 190.525 239.054 190.525C237.374 190.525 236.399 191.8 236.399 193.915C236.399 196.015 237.374 197.275 239.054 197.275ZM250.151 199V188.8H254.066C257.291 188.8 259.301 190.735 259.301 193.915C259.301 197.095 257.291 199 254.066 199H250.151ZM254.066 197.05C255.821 197.05 256.841 195.895 256.841 193.915C256.841 191.92 255.821 190.75 254.066 190.75H252.551V197.05H254.066ZM265.3 199V188.8H272.62V190.705H267.7V192.85H272.035V194.71H267.7V197.095H272.62V199H265.3Z" fill="#FF6A00"/>
</g>
<defs>
<filter id="filter0_d_154_433" x="110.468" y="359.703" width="340.636" height="85.732" filterUnits="userSpaceOnUse" color-interpolation-filters="sRGB">
<feFlood flood-opacity="0" result="BackgroundImageFix"/>
<feColorMatrix in="SourceAlpha" type="matrix" values="0 0 0 0 0 0 0 0 0 0 0 0 0 0 0 0 0 0 127 0" result="hardAlpha"/>
<feOffset dy="8"/>
<feGaussianBlur stdDeviation="2.5"/>
<feComposite in2="hardAlpha" operator="out"/>
<feColorMatrix type="matrix" values="0 0 0 0 0 0 0 0 0 0 0 0 0 0 0 0 0 0 0.25 0"/>
<feBlend mode="normal" in2="BackgroundImageFix" result="effect1_dropShadow_154_433"/>
<feBlend mode="normal" in="SourceGraphic" in2="effect1_dropShadow_154_433" result="shape"/>
</filter>
<filter id="filter1_d_154_433" x="105.456" y="515.07" width="230.624" height="63.26" filterUnits="userSpaceOnUse" color-interpolation-filters="sRGB">
<feFlood flood-opacity="0" result="BackgroundImageFix"/>
<feColorMatrix in="SourceAlpha" type="matrix" values="0 0 0 0 0 0 0 0 0 0 0 0 0 0 0 0 0 0 127 0" result="hardAlpha"/>
<feOffset dy="8"/>
<feGaussianBlur stdDeviation="2.5"/>
<feComposite in2="hardAlpha" operator="out"/>
<feColorMatrix type="matrix" values="0 0 0 0 0 0 0 0 0 0 0 0 0 0 0 0 0 0 0.25 0"/>
<feBlend mode="normal" in2="BackgroundImageFix" result="effect1_dropShadow_154_433"/>
<feBlend mode="normal" in="SourceGraphic" in2="effect1_dropShadow_154_433" result="shape"/>
</filter>
<filter id="filter2_d_154_433" x="105.456" y="443.07" width="412.929" height="63.26" filterUnits="userSpaceOnUse" color-interpolation-filters="sRGB">
<feFlood flood-opacity="0" result="BackgroundImageFix"/>
<feColorMatrix in="SourceAlpha" type="matrix" values="0 0 0 0 0 0 0 0 0 0 0 0 0 0 0 0 0 0 127 0" result="hardAlpha"/>
<feOffset dy="8"/>
<feGaussianBlur stdDeviation="2.5"/>
<feComposite in2="hardAlpha" operator="out"/>
<feColorMatrix type="matrix" values="0 0 0 0 0 0 0 0 0 0 0 0 0 0 0 0 0 0 0.25 0"/>
<feBlend mode="normal" in2="BackgroundImageFix" result="effect1_dropShadow_154_433"/>
<feBlend mode="normal" in="SourceGraphic" in2="effect1_dropShadow_154_433" result="shape"/>
</filter>
<filter id="filter3_d_154_433" x="103.356" y="299.07" width="427.061" height="63.26" filterUnits="userSpaceOnUse" color-interpolation-filters="sRGB">
<feFlood flood-opacity="0" result="BackgroundImageFix"/>
<feColorMatrix in="SourceAlpha" type="matrix" values="0 0 0 0 0 0 0 0 0 0 0 0 0 0 0 0 0 0 127 0" result="hardAlpha"/>
<feOffset dy="8"/>
<feGaussianBlur stdDeviation="2.5"/>
<feComposite in2="hardAlpha" operator="out"/>
<feColorMatrix type="matrix" values="0 0 0 0 0 0 0 0 0 0 0 0 0 0 0 0 0 0 0.25 0"/>
<feBlend mode="normal" in2="BackgroundImageFix" result="effect1_dropShadow_154_433"/>
<feBlend mode="normal" in="SourceGraphic" in2="effect1_dropShadow_154_433" result="shape"/>
</filter>
<filter id="filter4_d_154_433" x="105.456" y="228.4" width="209.769" height="61.93" filterUnits="userSpaceOnUse" color-interpolation-filters="sRGB">
<feFlood flood-opacity="0" result="BackgroundImageFix"/>
<feColorMatrix in="SourceAlpha" type="matrix" values="0 0 0 0 0 0 0 0 0 0 0 0 0 0 0 0 0 0 127 0" result="hardAlpha"/>
<feOffset dy="8"/>
<feGaussianBlur stdDeviation="2.5"/>
<feComposite in2="hardAlpha" operator="out"/>
<feColorMatrix type="matrix" values="0 0 0 0 0 0 0 0 0 0 0 0 0 0 0 0 0 0 0.25 0"/>
<feBlend mode="normal" in2="BackgroundImageFix" result="effect1_dropShadow_154_433"/>
<feBlend mode="normal" in="SourceGraphic" in2="effect1_dropShadow_154_433" result="shape"/>
</filter>
<linearGradient id="paint0_linear_154_433" x1="24" y1="781" x2="693.5" y2="22" gradientUnits="userSpaceOnUse">
<stop offset="0.123079" stop-color="#2F2F2F"/>
<stop offset="1" stop-color="#2F2F2F" stop-opacity="0.8"/>
</linearGradient>
<linearGradient id="paint1_linear_154_433" x1="91.5657" y1="584" x2="347.402" y2="553.099" gradientUnits="userSpaceOnUse">
<stop stop-color="white"/>
<stop offset="1" stop-color="#FF6A00"/>
</linearGradient>
<linearGradient id="paint2_linear_154_433" x1="106.956" y1="250" x2="325.956" y2="250" gradientUnits="userSpaceOnUse">
<stop stop-color="white"/>
<stop offset="1" stop-color="#FF6A00"/>
</linearGradient>
<clipPath id="clip0_154_433">
<rect width="720" height="800" fill="white"/>
</clipPath>
</defs>
</svg>
