<svg width="110" height="110" viewBox="0 0 110 110" fill="none" xmlns="http://www.w3.org/2000/svg">
<rect x="0.5" y="0.5" width="109" height="109" stroke="black" stroke-dasharray="2 2"/>
<path d="M54.2929 108.707C54.6834 109.098 55.3166 109.098 55.7071 108.707L62.0711 102.343C62.4616 101.953 62.4616 101.319 62.0711 100.929C61.6805 100.538 61.0474 100.538 60.6569 100.929L55 106.586L49.3431 100.929C48.9526 100.538 48.3195 100.538 47.9289 100.929C47.5384 101.319 47.5384 101.953 47.9289 102.343L54.2929 108.707ZM55 56L54 56L54 108L55 108L56 108L56 56L55 56Z" fill="black"/>
<path d="M55.7071 1.29289C55.3166 0.902367 54.6834 0.902367 54.2929 1.29289L47.9289 7.65685C47.5384 8.04737 47.5384 8.68054 47.9289 9.07106C48.3195 9.46159 48.9526 9.46159 49.3431 9.07106L55 3.41421L60.6569 9.07106C61.0474 9.46159 61.6805 9.46159 62.0711 9.07106C62.4616 8.68054 62.4616 8.04737 62.0711 7.65685L55.7071 1.29289ZM55 56L56 56L56 2L55 2L54 2L54 56L55 56Z" fill="black"/>
</svg>
