<svg width="131" height="90" viewBox="0 0 131 90" fill="none" xmlns="http://www.w3.org/2000/svg">
<line x1="2.5" y1="88.5" x2="69.5" y2="88.5" stroke="#2F2F2F" stroke-opacity="0.3" stroke-width="3" stroke-linecap="round"/>
<line x1="2.5" y1="80.1101" x2="129.5" y2="80.1101" stroke="#2F2F2F" stroke-opacity="0.3" stroke-width="3" stroke-linecap="round"/>
<path d="M55.4 75L49.6 59.7L18.6 59.7L12.8 75L1.6 75L27.8 7L40.9 7L67.1 75L55.4 75ZM32.1 24.4L22 50.9L46.2 50.9L36.1 24.4L34.1 17.8L32.1 24.4ZM85.4477 39.1L74.7477 39.1C76.4477 27.3 84.5477 20.3 97.8477 20.3C112.348 20.3 119.548 28.8 119.548 41.2L119.548 62C119.548 68.4 120.148 72.1 121.348 75L110.148 75C109.348 73 109.048 70.2 108.948 67.2C104.448 73.5 97.5477 76.3 91.1477 76.3C80.3477 76.3 72.9477 71.2 72.9477 61C72.9477 53.7 76.9477 48.3 84.9477 45.6C92.0477 43.2 99.2477 42.6 108.848 42.5L108.848 41.3C108.848 33.5 105.248 29.3 97.0477 29.3C90.1477 29.3 86.4477 33.1 85.4477 39.1ZM83.7477 60.6C83.7477 65.1 87.4477 67.9 93.1477 67.9C102.048 67.9 108.848 60.8 108.848 52.2L108.848 49.8C88.3477 50 83.7477 54.5 83.7477 60.6Z" fill="black"/>
</svg>
