<svg width="132" height="993" viewBox="0 0 132 993" fill="none" xmlns="http://www.w3.org/2000/svg">
<g filter="url(#filter0_i_159_640)">
<path d="M103 986.474H35V969.574L70.7 948.074L81.5 942.874L35 943.674L35 927.674H103V944.574L67.3 966.074L56.4 971.274L103 970.474V986.474ZM104.6 883.578C104.6 904.678 91 917.678 69.1 917.678C47.1 917.678 33.4 904.678 33.4 883.578C33.4 862.578 47.1 849.578 69.1 849.578C91 849.578 104.6 862.578 104.6 883.578ZM91.5 883.578C91.5 872.478 83.1 865.978 69.1 865.978C55.1 865.978 46.5 872.478 46.5 883.578C46.5 894.778 55 901.278 69.1 901.278C83.1 901.278 91.5 894.778 91.5 883.578ZM103 839.599H35L35 811.799C35 795.899 43 786.099 55.6 786.099C63.1 786.099 68.3 789.199 71.5 794.599C73.8 791.499 77.2 789.599 82.2 788.399L103 783.299V799.999L85.2 803.799C79.1 805.099 77.8 807.199 77.8 812.999V823.599H103V839.599ZM47.7 812.099L47.7 823.599H65.4V812.499C65.4 805.799 61.8 802.599 56.5 802.599C51.2 802.599 47.7 805.899 47.7 812.099ZM103 728.255L90.3 732.755V759.455L103 763.955V780.055L35 755.255V736.055L103 711.155V728.255ZM58.4 748.155L78 755.055V737.155L58.4 744.055L50.7 746.055L58.4 748.155ZM103 704.345H35L35 688.345H90V658.445H103V704.345ZM103 649.853H35V633.853H103L103 649.853ZM103 623.33H89.9L48.1 588.23V623.33H35L35 569.83H48.1L89.9 604.93V569.83H103V623.33Z" fill="#2F2F2F"/>
</g>
<g filter="url(#filter1_i_159_640)">
<path d="M59.0344 510.586C59.3001 509.6 60.6999 509.6 60.9656 510.586L64.093 522.201C64.1856 522.546 64.4544 522.814 64.7986 522.907L76.4137 526.034C77.4004 526.3 77.4004 527.7 76.4137 527.966L64.7986 531.093C64.4544 531.186 64.1856 531.454 64.093 531.799L60.9656 543.414C60.6999 544.4 59.3001 544.4 59.0344 543.414L55.907 531.799C55.8144 531.454 55.5456 531.186 55.2014 531.093L43.5863 527.966C42.5996 527.7 42.5996 526.3 43.5863 526.034L55.2014 522.907C55.5456 522.814 55.8144 522.546 55.907 522.201L59.0344 510.586Z" fill="#2F2F2F"/>
</g>
<g filter="url(#filter2_i_159_640)">
<path d="M56.8 420.011L56.8 436.811C50.1 438.711 46.5 443.511 46.5 450.311C46.5 460.611 55.1 466.511 69.1 466.511C83.2 466.511 91.5 460.711 91.5 450.311C91.5 443.911 88.1 438.911 81.7 437.011V420.011C96.7 423.511 104.6 435.611 104.6 450.111C104.6 470.411 91.1 482.911 69.1 482.911C47.1 482.911 33.4 470.411 33.4 449.911C33.4 435.311 41.3 422.911 56.8 420.011ZM104.6 379.084C104.6 400.184 91 413.184 69.1 413.184C47.1 413.184 33.4 400.184 33.4 379.084C33.4 358.084 47.1 345.084 69.1 345.084C91 345.084 104.6 358.084 104.6 379.084ZM91.5 379.084C91.5 367.984 83.1 361.484 69.1 361.484C55.1 361.484 46.5 367.984 46.5 379.084C46.5 390.284 55 396.784 69.1 396.784C83.1 396.784 91.5 390.284 91.5 379.084ZM103 335.105H35V314.005L75.2 299.205L85.3 296.305L75.2 293.405L35 278.605V258.105H103V274.105L52.9 273.205L69.8 278.405L103 290.805V302.405L69.6 314.905L53 320.005L103 319.105V335.105ZM103 245.945H35V219.445C35 202.645 43.5 192.245 57.8 192.245C72.4 192.245 80.8 202.745 80.8 219.245V229.945H103V245.945ZM47.7 219.745V229.945H68.1V220.145C68.1 212.345 64 208.745 57.9 208.745C51.7 208.745 47.7 212.545 47.7 219.745ZM103 142.609L90.3 147.109V173.809L103 178.309V194.409L35 169.609V150.409L103 125.509L103 142.609ZM58.4 162.509L78 169.409V151.509L58.4 158.409L50.7 160.409L58.4 162.509ZM52.5 105.771C67 105.771 54.7 65.7707 82.5 65.7707C96.5 65.7707 104.6 77.3707 104.6 93.2707C104.6 109.371 97.2 120.871 81.7 123.271V106.371C88.4 105.071 92.1 100.371 92.1 93.1707C92.1 85.9707 89.2 82.1707 84.5 82.1707C69.3 82.1707 80.9 122.271 54 122.271C42.6 122.271 33.4 112.771 33.4 96.0707C33.4 81.9707 40.1 69.7707 55.8 67.6707L55.8 84.7707C49.1 86.1707 45.9 90.0707 45.9 96.6707C45.9 102.271 48.5 105.771 52.5 105.771ZM52.5 42.8801C67 42.8801 54.7 2.88007 82.5 2.88007C96.5 2.88007 104.6 14.4801 104.6 30.3801C104.6 46.4801 97.2 57.9801 81.7 60.3801V43.4801C88.4 42.1801 92.1 37.4801 92.1 30.2801C92.1 23.0801 89.2 19.2801 84.5 19.2801C69.3 19.2801 80.9 59.3801 54 59.3801C42.6 59.3801 33.4 49.8801 33.4 33.1801C33.4 19.0801 40.1 6.88007 55.8 4.78008V21.8801C49.1 23.2801 45.9 27.1801 45.9 33.7801C45.9 39.3801 48.5 42.8801 52.5 42.8801Z" fill="#2F2F2F"/>
</g>
<defs>
<filter id="filter0_i_159_640" x="33.4" y="569.83" width="71.2" height="416.644" filterUnits="userSpaceOnUse" color-interpolation-filters="sRGB">
<feFlood flood-opacity="0" result="BackgroundImageFix"/>
<feBlend mode="normal" in="SourceGraphic" in2="BackgroundImageFix" result="shape"/>
<feColorMatrix in="SourceAlpha" type="matrix" values="0 0 0 0 0 0 0 0 0 0 0 0 0 0 0 0 0 0 127 0" result="hardAlpha"/>
<feOffset/>
<feGaussianBlur stdDeviation="4"/>
<feComposite in2="hardAlpha" operator="arithmetic" k2="-1" k3="1"/>
<feColorMatrix type="matrix" values="0 0 0 0 0 0 0 0 0 0 0 0 0 0 0 0 0 0 0.25 0"/>
<feBlend mode="normal" in2="shape" result="effect1_innerShadow_159_640"/>
</filter>
<filter id="filter1_i_159_640" x="42.8463" y="509.846" width="34.3074" height="34.3074" filterUnits="userSpaceOnUse" color-interpolation-filters="sRGB">
<feFlood flood-opacity="0" result="BackgroundImageFix"/>
<feBlend mode="normal" in="SourceGraphic" in2="BackgroundImageFix" result="shape"/>
<feColorMatrix in="SourceAlpha" type="matrix" values="0 0 0 0 0 0 0 0 0 0 0 0 0 0 0 0 0 0 127 0" result="hardAlpha"/>
<feOffset/>
<feGaussianBlur stdDeviation="4"/>
<feComposite in2="hardAlpha" operator="arithmetic" k2="-1" k3="1"/>
<feColorMatrix type="matrix" values="0 0 0 0 0 0 0 0 0 0 0 0 0 0 0 0 0 0 0.25 0"/>
<feBlend mode="normal" in2="shape" result="effect1_innerShadow_159_640"/>
</filter>
<filter id="filter2_i_159_640" x="33.4" y="2.88007" width="71.2" height="480.03" filterUnits="userSpaceOnUse" color-interpolation-filters="sRGB">
<feFlood flood-opacity="0" result="BackgroundImageFix"/>
<feBlend mode="normal" in="SourceGraphic" in2="BackgroundImageFix" result="shape"/>
<feColorMatrix in="SourceAlpha" type="matrix" values="0 0 0 0 0 0 0 0 0 0 0 0 0 0 0 0 0 0 127 0" result="hardAlpha"/>
<feOffset/>
<feGaussianBlur stdDeviation="4"/>
<feComposite in2="hardAlpha" operator="arithmetic" k2="-1" k3="1"/>
<feColorMatrix type="matrix" values="0 0 0 0 0 0 0 0 0 0 0 0 0 0 0 0 0 0 0.25 0"/>
<feBlend mode="normal" in2="shape" result="effect1_innerShadow_159_640"/>
</filter>
</defs>
</svg>
